:SAMPLES-PER-SECOND 30
:FULLY-SPECIFIED
:DEGREES
443
root  -33.0873 36.7398 13.2312 173.713 -66.7886 -178.783
RightUpLeg  -32.4688 -13.0002 13.1308
RightLeg  31.28 -9.48993 -6.38201
RightFoot  2.13429 2.18048 -18.1068
RightToes  0.00048216 0.542163 -0.142577
Spine  25.2684 -7.81098 2.53622
Spine1  1.92096 -12.2959 21.4711
HEad  1.6347 -1.61604 -4.54252
LeftShoulder1  10.0367 -16.7375 -43.1103
LeftArm  25.5417 -26.8339 -54.6555
LeftForeArm  4.69478 -20.658 -5.48439
LeftHand  -0.25398 0.0180481 5.50724
RightShoulder  4.22097 7.94785 30.9093
RightArm  -15.4672 -27.4591 26.0441
RightForeArm  20.3995 76.8847 64.7993
RightHand  -0.780254 -0.487093 -18.3719
LeftUpLeg  8.55441 29.0211 1.54352
LeftLeg  52.7868 -0.660375 -0.415933
LeftFoot  5.13382 1.74314 -12.4742
LeftToes  1.06246e-005 4.65856e-005 -8.18501e-006
444
root  -34.3405 36.4957 13.2592 172.753 -64.7045 -177.203
RightUpLeg  -33.4406 -10.252 13.0575
RightLeg  36.6478 -10.1642 -8.2577
RightFoot  -1.54308 1.46891 -17.1075
RightToes  0.00048216 0.542163 -0.142577
Spine  27.6615 -7.60146 4.42934
Spine1  2.82589 -11.7243 21.0445
HEad  0.278073 -3.53347 -1.46495
LeftShoulder1  10.0293 -17.0338 -42.4106
LeftArm  25.8069 -28.2533 -53.0828
LeftForeArm  2.89573 -22.1662 -5.07252
LeftHand  -0.25398 0.0180481 5.50724
RightShoulder  4.42656 8.42523 31.1597
RightArm  -15.0318 -23.7413 26.6784
RightForeArm  14.5372 75.9656 57.1206
RightHand  -0.812512 -0.191489 -18.0814
LeftUpLeg  -2.0878 27.3289 0.93041
LeftLeg  66.1771 0.177557 1.25345
LeftFoot  11.308 2.09291 -10.7523
LeftToes  1.06246e-005 4.65856e-005 -8.18501e-006
445
root  -35.707 36.6236 13.3685 173.585 -62.1029 -177.318
RightUpLeg  -33.0837 -9.43221 12.3631
RightLeg  38.8215 -8.37943 -7.45581
RightFoot  -3.70903 1.05387 -16.06
RightToes  0.00048216 0.542163 -0.142577
Spine  29.4213 -7.40518 6.19784
Spine1  3.63832 -10.9513 19.5275
HEad  -0.94885 -5.10018 0.95699
LeftShoulder1  10.2014 -17.3741 -42.434
LeftArm  22.9205 -29.2013 -50.013
LeftForeArm  3.24173 -24.7162 -5.07439
LeftHand  -0.25398 0.0180481 5.50724
RightShoulder  4.60754 8.79451 31.5194
RightArm  -13.835 -19.1912 27.4631
RightForeArm  8.9301 74.5396 48.9761
RightHand  -0.870433 0.258228 -17.8706
LeftUpLeg  -11.97 25.8745 -0.26689
LeftLeg  74.8752 0.874715 4.81919
LeftFoot  9.3624 1.23941 -7.00807
LeftToes  1.06246e-005 4.65856e-005 -8.18501e-006
446
root  -37.1456 37.0133 13.5088 175.263 -58.0508 -178.521
RightUpLeg  -31.6265 -7.5422 10.829
RightLeg  39.2721 -6.4787 -5.94609
RightFoot  -4.74308 0.821351 -14.6959
RightToes  0.00048216 0.542163 -0.142577
Spine  31.3485 -6.85843 7.29577
Spine1  4.21908 -9.69442 17.5173
HEad  -2.15929 -5.67312 2.27152
LeftShoulder1  10.3503 -17.598 -42.6068
LeftArm  17.1204 -29.5973 -46.0802
LeftForeArm  5.52811 -27.6275 -5.66448
LeftHand  -0.25398 0.0180481 5.50724
RightShoulder  4.79362 9.2049 31.7764
RightArm  -11.6828 -13.77 28.113
RightForeArm  3.8408 72.5098 41.1618
RightHand  -1.03462 1.15113 -18.3942
LeftUpLeg  -19.8066 25.225 -0.951718
LeftLeg  77.8135 1.13714 7.6295
LeftFoot  4.81844 0.516536 -3.89288
LeftToes  1.06246e-005 4.65856e-005 -8.18501e-006
447
root  -38.5478 37.4809 13.6435 177.363 -53.2829 179.683
RightUpLeg  -29.8941 -4.34753 8.62428
RightLeg  39.0328 -5.34089 -4.91984
RightFoot  -5.55567 0.615999 -12.8634
RightToes  0.00048216 0.542163 -0.142577
Spine  33.4506 -6.1357 7.23788
Spine1  4.55687 -8.50783 15.8155
HEad  -3.31061 -5.31888 3.17526
LeftShoulder1  10.2852 -17.6453 -42.2172
LeftArm  11.4537 -29.7593 -42.0634
LeftForeArm  7.13522 -30.0109 -6.14623
LeftHand  -0.25398 0.0180481 5.50724
RightShoulder  4.9116 9.59712 31.546
RightArm  -8.9131 -7.61703 29.2543
RightForeArm  -0.612717 69.6604 33.7863
RightHand  -1.17315 1.80352 -19.0136
LeftUpLeg  -25.8884 24.3683 -1.11016
LeftLeg  75.9646 1.31801 7.4478
LeftFoot  1.93404 0.281345 -2.53906
LeftToes  1.06246e-005 4.65856e-005 -8.18501e-006
448
root  -39.9096 37.9578 13.7895 179.667 -48.882 177.621
RightUpLeg  -28.4195 -1.65867 5.92392
RightLeg  38.3169 -3.93456 -3.61894
RightFoot  -6.10551 0.484535 -11.4582
RightToes  0.00048216 0.542163 -0.142577
Spine  35.3373 -5.61941 6.40474
Spine1  4.72711 -7.80328 14.3196
HEad  -4.35367 -4.4844 4.01671
LeftShoulder1  10.1085 -17.6695 -41.3858
LeftArm  7.01118 -30.0692 -38.1173
LeftForeArm  7.48595 -31.2747 -6.44164
LeftHand  -0.25398 0.0180481 5.50724
RightShoulder  4.91996 9.90692 30.7334
RightArm  -6.06097 -1.22503 31.2992
RightForeArm  -3.5562 65.9348 27.2585
RightHand  -1.10688 1.63726 -18.3385
LeftUpLeg  -30.3873 22.8347 -1.05119
LeftLeg  70.6021 1.7135 6.30152
LeftFoot  -0.152524 0.166549 -1.68407
LeftToes  1.06246e-005 4.65856e-005 -8.18501e-006
449
root  -41.2509 38.3483 13.9657 -178.521 -44.7073 176.139
RightUpLeg  -27.5432 0.0105137 3.36719
RightLeg  37.6761 -1.82582 -1.79323
RightFoot  -6.37383 0.428185 -10.819
RightToes  0.00048216 0.542163 -0.142577
Spine  36.9498 -5.34939 5.77753
Spine1  4.97595 -7.23691 12.5023
HEad  -5.39502 -3.47389 4.47843
LeftShoulder1  9.98991 -17.8456 -40.4917
LeftArm  3.61741 -30.4343 -34.2521
LeftForeArm  6.88873 -31.7169 -6.58834
LeftHand  -0.25398 0.0180481 5.50724
RightShoulder  4.85416 10.2096 29.4223
RightArm  -3.18688 4.90872 34.0632
RightForeArm  -5.17292 61.5112 21.9628
RightHand  -0.974557 1.4472 -16.6658
LeftUpLeg  -32.9614 21.6581 -0.231426
LeftLeg  62.1656 2.70508 6.12703
LeftFoot  -2.59655 0.121809 -1.42065
LeftToes  1.06246e-005 4.65856e-005 -8.18501e-006
450
root  -42.5861 38.617 14.1429 -177.317 -40.1354 175.587
RightUpLeg  -27.3623 1.34963 1.45286
RightLeg  37.4326 0.0817836 -0.210916
RightFoot  -6.62785 0.383213 -10.3579
RightToes  0.00048216 0.542163 -0.142577
Spine  38.4408 -4.96169 5.51952
Spine1  5.25694 -6.33144 10.4174
HEad  -6.54509 -2.55188 4.47281
LeftShoulder1  9.96805 -18.1502 -39.7689
LeftArm  0.536277 -30.4388 -30.597
LeftForeArm  6.16589 -32.0279 -6.70937
LeftHand  -0.25398 0.0180481 5.50724
RightShoulder  4.71019 10.538 27.5189
RightArm  0.0819353 10.5462 37.3695
RightForeArm  -6.9683 56.6696 17.954
RightHand  -1.05236 2.30922 -16.0162
LeftUpLeg  -33.6547 21.759 1.60352
LeftLeg  50.6289 3.98631 5.67266
LeftFoot  -3.1993 0.194259 -2.42017
LeftToes  1.06246e-005 4.65856e-005 -8.18501e-006
451
root  -43.8987 38.8187 14.2942 -176.197 -35.2387 175.515
RightUpLeg  -27.8003 2.11188 0.190799
RightLeg  37.3724 1.06896 0.602617
RightFoot  -6.69377 0.354646 -9.82004
RightToes  0.00048216 0.542163 -0.142577
Spine  39.9392 -4.22865 5.03972
Spine1  5.34381 -5.11848 8.56074
HEad  -7.69941 -2.10338 4.54117
LeftShoulder1  10.0751 -18.4546 -39.6218
LeftArm  -2.4902 -29.9912 -26.9939
LeftForeArm  5.86295 -32.6035 -6.87648
LeftHand  -0.25398 0.0180481 5.50724
RightShoulder  4.46994 10.8631 24.9907
RightArm  3.68868 15.5975 41.2584
RightForeArm  -9.48531 51.6781 14.9819
RightHand  -1.38947 4.06097 -17.2526
LeftUpLeg  -32.7751 22.4136 3.90388
LeftLeg  36.4968 4.32236 3.89563
LeftFoot  -1.83474 0.326546 -3.79765
LeftToes  1.06246e-005 4.65856e-005 -8.18501e-006
452
root  -45.2296 38.9048 14.4484 -175.269 -30.2463 175.743
RightUpLeg  -28.8256 1.30186 -0.33427
RightLeg  38.0384 1.39051 0.891534
RightFoot  -6.63872 0.347143 -9.51334
RightToes  0.00048216 0.542163 -0.142577
Spine  41.5237 -3.36866 4.53437
Spine1  5.47398 -3.85143 6.90056
HEad  -8.62079 -2.27402 5.35532
LeftShoulder1  10.2925 -18.7155 -40.0364
LeftArm  -5.35193 -29.4092 -23.3141
LeftForeArm  5.9383 -33.3475 -7.06883
LeftHand  -0.25398 0.0180481 5.50724
RightShoulder  4.22219 11.2348 22.3911
RightArm  6.87339 20.1326 45.5668
RightForeArm  -11.4903 46.623 12.633
RightHand  -1.83947 5.97652 -19.0194
LeftUpLeg  -30.1414 21.7779 6.9607
LeftLeg  21.9482 4.35785 1.96174
LeftFoot  -1.63036 0.412417 -4.76032
LeftToes  1.06246e-005 4.65856e-005 -8.18501e-006
453
root  -46.6463 38.8424 14.6394 -174.861 -25.0807 176.218
RightUpLeg  -30.154 -0.955079 -0.298451
RightLeg  39.6218 1.46227 1.01297
RightFoot  -6.80745 0.328045 -9.41373
RightToes  0.00048216 0.542163 -0.142577
Spine  43.1258 -2.75266 4.46027
Spine1  6.0439 -2.56605 4.54961
HEad  -9.20863 -2.75613 6.98185
LeftShoulder1  10.4183 -18.9544 -40.0984
LeftArm  -8.12317 -28.9404 -20.1021
LeftForeArm  6.06184 -33.8923 -7.20803
LeftHand  -0.25398 0.0180481 5.50724
RightShoulder  4.06944 11.6498 20.4761
RightArm  9.11077 24.4941 49.9301
RightForeArm  -11.9088 41.416 10.5975
RightHand  -2.25041 7.81637 -20.0258
LeftUpLeg  -26.017 17.6072 11.6988
LeftLeg  10.8491 7.66812 0.414552
LeftFoot  -2.65179 0.463829 -5.91211
LeftToes  1.06246e-005 4.65856e-005 -8.18501e-006
454
root  -48.1295 38.7061 14.876 -174.427 -20.0605 176.72
RightUpLeg  -31.8964 -3.35039 -0.292102
RightLeg  41.3982 1.27778 0.912513
RightFoot  -7.0425 0.290916 -8.9849
RightToes  0.00048216 0.542163 -0.142577
Spine  44.7263 -2.51929 4.48695
Spine1  7.07903 -1.29537 1.21116
HEad  -9.7153 -3.06508 8.70944
LeftShoulder1  10.325 -19.1304 -39.3616
LeftArm  -11.0822 -28.6935 -17.8345
LeftForeArm  6.01573 -34.0762 -7.26067
LeftHand  -0.25398 0.0180481 5.50724
RightShoulder  3.98336 11.957 19.3054
RightArm  10.7484 29.092 54.048
RightForeArm  -11.1681 36.1958 8.83904
RightHand  -2.59856 9.57677 -20.4043
LeftUpLeg  -23.6077 13.3361 15.0995
LeftLeg  6.71343 11.1501 -0.773924
LeftFoot  -1.46776 0.690676 -7.80039
LeftToes  1.06246e-005 4.65856e-005 -8.18501e-006
455
root  -49.6442 38.5294 15.1682 -173.407 -15.6901 177.474
RightUpLeg  -34.5782 -5.14552 -0.191464
RightLeg  43.046 0.728202 0.422615
RightFoot  -6.75724 0.274842 -7.99986
RightToes  0.00048216 0.542163 -0.142577
Spine  46.1296 -2.6963 4.77314
Spine1  7.72726 -0.332138 -2.07639
HEad  -10.6165 -2.87045 10.0665
LeftShoulder1  10.0361 -19.1108 -38.1736
LeftArm  -14.6198 -28.675 -16.3437
LeftForeArm  6.08934 -34.3084 -7.31993
LeftHand  -0.25398 0.0180481 5.50724
RightShoulder  3.99336 12.2365 18.8772
RightArm  12.3976 34.0612 57.3486
RightForeArm  -10.3957 31.492 7.46733
RightHand  -2.88882 10.9994 -20.713
LeftUpLeg  -25.1862 15.8308 14.2566
LeftLeg  8.9527 7.94273 -0.98031
LeftFoot  3.45347 1.25419 -9.78461
LeftToes  1.06246e-005 4.65856e-005 -8.18501e-006
456
root  -51.1428 38.3439 15.5086 -171.82 -12.26 178.361
RightUpLeg  -38.0868 -7.03882 0.331913
RightLeg  44.4972 -0.495283 -0.842271
RightFoot  -5.62451 0.298856 -6.75013
RightToes  0.00048216 0.542163 -0.142577
Spine  47.7446 -3.49491 5.55622
Spine1  7.11476 -0.0110655 -5.23612
HEad  -12.0407 -2.23108 11.7251
LeftShoulder1  9.43154 -18.8561 -36.0487
LeftArm  -18.8632 -28.5921 -15.8153
LeftForeArm  6.85979 -35.1796 -7.5165
LeftHand  -0.25398 0.0180481 5.50724
RightShoulder  4.30985 12.7843 20.0423
RightArm  14.1501 39.1417 59.1089
RightForeArm  -10.0714 27.7557 6.502
RightHand  -3.10257 11.9704 -20.9965
LeftUpLeg  -29.7784 22.1658 10.53
LeftLeg  13.6026 1.94266 -0.694511
LeftFoot  8.94025 1.77985 -10.2854
LeftToes  1.06246e-005 4.65856e-005 -8.18501e-006
457
root  -52.544 38.2658 15.8653 -169.999 -9.77802 178.59
RightUpLeg  -41.5507 -10.0486 1.09939
RightLeg  45.1218 -2.77764 -3.30214
RightFoot  -3.87987 0.343967 -5.66918
RightToes  0.00048216 0.542163 -0.142577
Spine  50.2444 -4.35336 5.87781
Spine1  5.90981 -0.0931297 -8.0101
HEad  -13.9708 -1.96569 13.6819
LeftShoulder1  8.86039 -18.7877 -33.6617
LeftArm  -23.195 -28.8689 -16.045
LeftForeArm  8.00767 -36.3546 -7.78045
LeftHand  -0.25398 0.0180481 5.50724
RightShoulder  4.70516 13.1754 21.919
RightArm  15.2778 43.9927 59.8237
RightForeArm  -9.65906 24.8276 5.79803
RightHand  -3.27996 12.8323 -21.1451
LeftUpLeg  -35.2686 27.3448 5.34267
LeftLeg  18.1312 -2.08175 -0.289426
LeftFoot  10.4168 1.57587 -8.48726
LeftToes  1.06246e-005 4.65856e-005 -8.18501e-006
